<mxfile host="Electron" modified="2024-02-07T00:52:16.262Z" agent="Mozilla/5.0 (Macintosh; Intel Mac OS X 10_15_7) AppleWebKit/537.36 (KHTML, like Gecko) draw.io/23.0.2 Chrome/120.0.6099.109 Electron/28.1.0 Safari/537.36" etag="I0w7vJgvUL7WskwvT_7b" version="23.0.2" type="device">
  <diagram id="prtHgNgQTEPvFCAcTncT" name="Page-1">
    <mxGraphModel dx="2475" dy="894" grid="1" gridSize="10" guides="1" tooltips="1" connect="1" arrows="1" fold="1" page="1" pageScale="1" pageWidth="1169" pageHeight="827" math="0" shadow="0">
      <root>
        <mxCell id="0" />
        <mxCell id="1" parent="0" />
        <mxCell id="dNxyNK7c78bLwvsdeMH5-11" value="PizzaMea Orgchart" style="swimlane;html=1;startSize=20;horizontal=1;containerType=tree;glass=0;" parent="1" vertex="1">
          <mxGeometry x="-1054" y="30" width="940" height="720" as="geometry">
            <mxRectangle x="-1054" y="30" width="90" height="30" as="alternateBounds" />
          </mxGeometry>
        </mxCell>
        <mxCell id="ychN1YBk3QuJB1vX3Ds_-4" style="edgeStyle=orthogonalEdgeStyle;rounded=0;orthogonalLoop=1;jettySize=auto;html=1;entryX=0.5;entryY=0;entryDx=0;entryDy=0;" edge="1" parent="dNxyNK7c78bLwvsdeMH5-11" source="dNxyNK7c78bLwvsdeMH5-12" target="ychN1YBk3QuJB1vX3Ds_-3">
          <mxGeometry relative="1" as="geometry" />
        </mxCell>
        <UserObject label="%name%&lt;br&gt;&lt;i style=&quot;color: gray&quot;&gt;%position%&lt;/i&gt;" name="Tessa Miller" position="CEO" location="Office 1" email="me@example.com" placeholders="1" link="https://www.draw.io" id="dNxyNK7c78bLwvsdeMH5-12">
          <mxCell style="label;image=https://cdn3.iconfinder.com/data/icons/user-avatars-1/512/users-3-128.png;whiteSpace=wrap;html=1;rounded=0;glass=0;treeMoving=1;treeFolding=1;fillColor=#d5e8d4;strokeColor=#82b366;" parent="dNxyNK7c78bLwvsdeMH5-11" vertex="1">
            <mxGeometry x="380" y="40" width="180" height="80" as="geometry" />
          </mxCell>
        </UserObject>
        <mxCell id="dNxyNK7c78bLwvsdeMH5-13" value="" style="endArrow=blockThin;endFill=1;fontSize=11;edgeStyle=elbowEdgeStyle;elbow=vertical;rounded=0;" parent="dNxyNK7c78bLwvsdeMH5-11" source="dNxyNK7c78bLwvsdeMH5-12" target="dNxyNK7c78bLwvsdeMH5-14" edge="1">
          <mxGeometry relative="1" as="geometry" />
        </mxCell>
        <UserObject label="%name%&lt;br&gt;&lt;i style=&quot;color: gray&quot;&gt;%position%&lt;/i&gt;" name="Edward Morrison" position="CIO" location="Office 2" email="me@example.com" placeholders="1" link="https://www.draw.io" id="dNxyNK7c78bLwvsdeMH5-14">
          <mxCell style="label;image=https://cdn3.iconfinder.com/data/icons/user-avatars-1/512/users-10-3-128.png;whiteSpace=wrap;html=1;rounded=0;glass=0;treeFolding=1;treeMoving=1;fillColor=#d5e8d4;strokeColor=#82b366;" parent="dNxyNK7c78bLwvsdeMH5-11" vertex="1">
            <mxGeometry x="155" y="170" width="180" height="80" as="geometry" />
          </mxCell>
        </UserObject>
        <mxCell id="dNxyNK7c78bLwvsdeMH5-17" value="" style="endArrow=blockThin;endFill=1;fontSize=11;edgeStyle=elbowEdgeStyle;elbow=vertical;rounded=0;" parent="dNxyNK7c78bLwvsdeMH5-11" source="dNxyNK7c78bLwvsdeMH5-12" target="dNxyNK7c78bLwvsdeMH5-18" edge="1">
          <mxGeometry relative="1" as="geometry" />
        </mxCell>
        <mxCell id="ychN1YBk3QuJB1vX3Ds_-25" style="edgeStyle=orthogonalEdgeStyle;rounded=0;orthogonalLoop=1;jettySize=auto;html=1;entryX=0.5;entryY=0;entryDx=0;entryDy=0;exitX=0.5;exitY=1;exitDx=0;exitDy=0;" edge="1" parent="dNxyNK7c78bLwvsdeMH5-11" source="dNxyNK7c78bLwvsdeMH5-14" target="ychN1YBk3QuJB1vX3Ds_-24">
          <mxGeometry relative="1" as="geometry" />
        </mxCell>
        <mxCell id="ychN1YBk3QuJB1vX3Ds_-29" style="edgeStyle=orthogonalEdgeStyle;rounded=0;orthogonalLoop=1;jettySize=auto;html=1;entryX=0.5;entryY=0;entryDx=0;entryDy=0;" edge="1" parent="dNxyNK7c78bLwvsdeMH5-11" source="dNxyNK7c78bLwvsdeMH5-18" target="ychN1YBk3QuJB1vX3Ds_-26">
          <mxGeometry relative="1" as="geometry" />
        </mxCell>
        <UserObject label="%name%&lt;br&gt;&lt;i style=&quot;color: gray&quot;&gt;%position%&lt;/i&gt;" name="Alison Donovan" position="CFO" location="Office 3" email="me@example.com" placeholders="1" link="https://www.draw.io" id="dNxyNK7c78bLwvsdeMH5-18">
          <mxCell style="label;image=https://cdn3.iconfinder.com/data/icons/user-avatars-1/512/users-14-128.png;whiteSpace=wrap;html=1;rounded=0;glass=0;container=1;fillColor=#d5e8d4;strokeColor=#82b366;" parent="dNxyNK7c78bLwvsdeMH5-11" vertex="1">
            <mxGeometry x="605" y="170" width="180" height="80" as="geometry">
              <mxRectangle x="605" y="170" width="220" height="80" as="alternateBounds" />
            </mxGeometry>
          </mxCell>
        </UserObject>
        <UserObject label="%name%&lt;br&gt;&lt;i style=&quot;color: gray&quot;&gt;%position%&lt;/i&gt;" name="Rebecca Bridges" position="COO" location="Office 1" email="me@example.com" placeholders="1" link="https://www.draw.io" id="ychN1YBk3QuJB1vX3Ds_-3">
          <mxCell style="label;image=https://cdn3.iconfinder.com/data/icons/user-avatars-1/512/users-5-128.png;whiteSpace=wrap;html=1;rounded=0;glass=0;treeMoving=1;treeFolding=1;fillColor=#d5e8d4;strokeColor=#82b366;" vertex="1" parent="dNxyNK7c78bLwvsdeMH5-11">
            <mxGeometry x="380" y="170" width="180" height="80" as="geometry" />
          </mxCell>
        </UserObject>
        <UserObject label="%name%&lt;br&gt;&lt;i style=&quot;color: gray&quot;&gt;%position%&lt;/i&gt;" name="Lisa Hardy" position="Systems Admin" location="Office 3" email="me@example.com" placeholders="1" link="https://www.draw.io" id="ychN1YBk3QuJB1vX3Ds_-24">
          <mxCell style="label;image=https://cdn3.iconfinder.com/data/icons/user-avatars-1/512/users-12-128.png;whiteSpace=wrap;html=1;rounded=0;glass=0;container=1;fillColor=#d5e8d4;strokeColor=#82b366;" vertex="1" parent="dNxyNK7c78bLwvsdeMH5-11">
            <mxGeometry x="155" y="290" width="180" height="70" as="geometry">
              <mxRectangle x="490" y="180" width="220" height="80" as="alternateBounds" />
            </mxGeometry>
          </mxCell>
        </UserObject>
        <UserObject label="&lt;b&gt;%name%&lt;/b&gt;&lt;br&gt;&lt;i style=&quot;color: gray&quot;&gt;%position%&lt;/i&gt;" name="Evan Valet" position="Corporate Stores Manager" location="Office 4" email="me@example.com" placeholders="1" link="https://www.draw.io" id="ychN1YBk3QuJB1vX3Ds_-2">
          <mxCell style="label;image=https://cdn3.iconfinder.com/data/icons/user-avatars-1/512/users-1-128.png;whiteSpace=wrap;html=1;rounded=0;glass=0;treeFolding=1;treeMoving=1;fontStyle=0;fillColor=#d5e8d4;strokeColor=#82b366;" vertex="1" parent="dNxyNK7c78bLwvsdeMH5-11">
            <mxGeometry x="380" y="290" width="180" height="70" as="geometry" />
          </mxCell>
        </UserObject>
        <mxCell id="ychN1YBk3QuJB1vX3Ds_-5" style="edgeStyle=orthogonalEdgeStyle;rounded=0;orthogonalLoop=1;jettySize=auto;html=1;entryX=0.5;entryY=0;entryDx=0;entryDy=0;" edge="1" parent="dNxyNK7c78bLwvsdeMH5-11" source="ychN1YBk3QuJB1vX3Ds_-3" target="ychN1YBk3QuJB1vX3Ds_-2">
          <mxGeometry relative="1" as="geometry" />
        </mxCell>
        <UserObject label="&lt;b&gt;%name%&lt;/b&gt;&lt;br&gt;&lt;i style=&quot;color: gray&quot;&gt;%position%&lt;/i&gt;" name="Jenny Harding" position="Brisbane Store Manager" location="Office 4" email="me@example.com" placeholders="1" link="https://www.draw.io" id="ychN1YBk3QuJB1vX3Ds_-6">
          <mxCell style="label;image=https://cdn3.iconfinder.com/data/icons/user-avatars-1/512/users-7-128.png;whiteSpace=wrap;html=1;rounded=0;glass=0;treeFolding=1;treeMoving=1;fontStyle=0;fillColor=#dae8fc;strokeColor=#6c8ebf;" vertex="1" parent="dNxyNK7c78bLwvsdeMH5-11">
            <mxGeometry x="144" y="470" width="180" height="80" as="geometry" />
          </mxCell>
        </UserObject>
        <mxCell id="ychN1YBk3QuJB1vX3Ds_-14" style="edgeStyle=orthogonalEdgeStyle;rounded=0;orthogonalLoop=1;jettySize=auto;html=1;entryX=0.5;entryY=0;entryDx=0;entryDy=0;" edge="1" parent="dNxyNK7c78bLwvsdeMH5-11" source="ychN1YBk3QuJB1vX3Ds_-2" target="ychN1YBk3QuJB1vX3Ds_-6">
          <mxGeometry relative="1" as="geometry">
            <Array as="points">
              <mxPoint x="470" y="420" />
              <mxPoint x="234" y="420" />
            </Array>
          </mxGeometry>
        </mxCell>
        <UserObject label="&lt;b&gt;%name%&lt;/b&gt;&lt;br&gt;&lt;i style=&quot;color: gray&quot;&gt;%position%&lt;/i&gt;" name="Ewan Woods" position="Sydney Store Manager" location="Office 4" email="me@example.com" placeholders="1" link="https://www.draw.io" id="ychN1YBk3QuJB1vX3Ds_-7">
          <mxCell style="label;image=https://cdn3.iconfinder.com/data/icons/user-avatars-1/512/users-8-128.png;whiteSpace=wrap;html=1;rounded=0;glass=0;treeFolding=1;treeMoving=1;fontStyle=0;fillColor=#dae8fc;strokeColor=#6c8ebf;" vertex="1" parent="dNxyNK7c78bLwvsdeMH5-11">
            <mxGeometry x="605" y="470" width="180" height="80" as="geometry" />
          </mxCell>
        </UserObject>
        <mxCell id="ychN1YBk3QuJB1vX3Ds_-15" style="edgeStyle=orthogonalEdgeStyle;rounded=0;orthogonalLoop=1;jettySize=auto;html=1;entryX=0.5;entryY=0;entryDx=0;entryDy=0;" edge="1" parent="dNxyNK7c78bLwvsdeMH5-11" source="ychN1YBk3QuJB1vX3Ds_-2" target="ychN1YBk3QuJB1vX3Ds_-7">
          <mxGeometry relative="1" as="geometry">
            <Array as="points">
              <mxPoint x="470" y="420" />
              <mxPoint x="695" y="420" />
            </Array>
          </mxGeometry>
        </mxCell>
        <UserObject label="&lt;b&gt;%name%&lt;/b&gt;&lt;br&gt;&lt;i style=&quot;color: gray&quot;&gt;%position%&lt;/i&gt;" name="Richard Adams" position="POS Operator" location="Office 4" email="me@example.com" placeholders="1" link="https://www.draw.io" id="ychN1YBk3QuJB1vX3Ds_-8">
          <mxCell style="label;image=https://cdn3.iconfinder.com/data/icons/user-avatars-1/512/users-2-128.png;whiteSpace=wrap;html=1;rounded=0;glass=0;treeFolding=1;treeMoving=1;fontStyle=0;fillColor=#dae8fc;strokeColor=#6c8ebf;" vertex="1" parent="dNxyNK7c78bLwvsdeMH5-11">
            <mxGeometry x="39" y="600" width="180" height="80" as="geometry" />
          </mxCell>
        </UserObject>
        <mxCell id="ychN1YBk3QuJB1vX3Ds_-22" style="edgeStyle=orthogonalEdgeStyle;rounded=0;orthogonalLoop=1;jettySize=auto;html=1;entryX=0.5;entryY=0;entryDx=0;entryDy=0;" edge="1" parent="dNxyNK7c78bLwvsdeMH5-11" source="ychN1YBk3QuJB1vX3Ds_-6" target="ychN1YBk3QuJB1vX3Ds_-8">
          <mxGeometry relative="1" as="geometry" />
        </mxCell>
        <UserObject label="&lt;b&gt;%name%&lt;/b&gt;&lt;br&gt;&lt;i style=&quot;color: gray&quot;&gt;%position%&lt;/i&gt;" name="Dan Scott" position="POS Operator" location="Office 4" email="me@example.com" placeholders="1" link="https://www.draw.io" id="ychN1YBk3QuJB1vX3Ds_-9">
          <mxCell style="label;image=https://cdn3.iconfinder.com/data/icons/user-avatars-1/512/users-11-128.png;whiteSpace=wrap;html=1;rounded=0;glass=0;treeFolding=1;treeMoving=1;fontStyle=0;fillColor=#dae8fc;strokeColor=#6c8ebf;" vertex="1" parent="dNxyNK7c78bLwvsdeMH5-11">
            <mxGeometry x="249" y="600" width="180" height="80" as="geometry" />
          </mxCell>
        </UserObject>
        <mxCell id="ychN1YBk3QuJB1vX3Ds_-21" style="edgeStyle=orthogonalEdgeStyle;rounded=0;orthogonalLoop=1;jettySize=auto;html=1;" edge="1" parent="dNxyNK7c78bLwvsdeMH5-11" source="ychN1YBk3QuJB1vX3Ds_-6" target="ychN1YBk3QuJB1vX3Ds_-9">
          <mxGeometry relative="1" as="geometry" />
        </mxCell>
        <UserObject label="&lt;b&gt;%name%&lt;/b&gt;&lt;br&gt;&lt;i style=&quot;color: gray&quot;&gt;%position%&lt;/i&gt;" name="Julie Richie" position="POS Operator" location="Office 4" email="me@example.com" placeholders="1" link="https://www.draw.io" id="ychN1YBk3QuJB1vX3Ds_-10">
          <mxCell style="label;image=https://cdn3.iconfinder.com/data/icons/user-avatars-1/512/users-16-128.png;whiteSpace=wrap;html=1;rounded=0;glass=0;treeFolding=1;treeMoving=1;fontStyle=0;fillColor=#dae8fc;strokeColor=#6c8ebf;" vertex="1" parent="dNxyNK7c78bLwvsdeMH5-11">
            <mxGeometry x="500" y="600" width="180" height="80" as="geometry" />
          </mxCell>
        </UserObject>
        <UserObject label="&lt;b&gt;%name%&lt;/b&gt;&lt;br&gt;&lt;i style=&quot;color: gray&quot;&gt;%position%&lt;/i&gt;" name="Frank Lu" position="POS Operator" location="Office 4" email="me@example.com" placeholders="1" link="https://www.draw.io" id="ychN1YBk3QuJB1vX3Ds_-11">
          <mxCell style="label;image=https://cdn3.iconfinder.com/data/icons/user-avatars-1/512/users-15-128.png;whiteSpace=wrap;html=1;rounded=0;glass=0;treeFolding=1;treeMoving=1;fontStyle=0;fillColor=#dae8fc;strokeColor=#6c8ebf;" vertex="1" parent="dNxyNK7c78bLwvsdeMH5-11">
            <mxGeometry x="710" y="600" width="180" height="80" as="geometry" />
          </mxCell>
        </UserObject>
        <UserObject label="&lt;b&gt;%name%&lt;/b&gt;&lt;br&gt;&lt;i style=&quot;color: gray&quot;&gt;%position%&lt;/i&gt;" name="David Dennings" position="Supply Manager" location="Office 4" email="me@example.com" placeholders="1" link="https://www.draw.io" id="ychN1YBk3QuJB1vX3Ds_-16">
          <mxCell style="label;image=https://cdn3.iconfinder.com/data/icons/user-avatars-1/512/users-4-128.png;whiteSpace=wrap;html=1;rounded=0;glass=0;treeFolding=1;treeMoving=1;fontStyle=0;fillColor=#d5e8d4;strokeColor=#82b366;" vertex="1" parent="dNxyNK7c78bLwvsdeMH5-11">
            <mxGeometry x="380" y="470" width="180" height="80" as="geometry" />
          </mxCell>
        </UserObject>
        <mxCell id="ychN1YBk3QuJB1vX3Ds_-19" style="edgeStyle=orthogonalEdgeStyle;rounded=0;orthogonalLoop=1;jettySize=auto;html=1;" edge="1" parent="dNxyNK7c78bLwvsdeMH5-11" source="ychN1YBk3QuJB1vX3Ds_-7" target="ychN1YBk3QuJB1vX3Ds_-10">
          <mxGeometry relative="1" as="geometry" />
        </mxCell>
        <mxCell id="ychN1YBk3QuJB1vX3Ds_-20" style="edgeStyle=orthogonalEdgeStyle;rounded=0;orthogonalLoop=1;jettySize=auto;html=1;" edge="1" parent="dNxyNK7c78bLwvsdeMH5-11" source="ychN1YBk3QuJB1vX3Ds_-7" target="ychN1YBk3QuJB1vX3Ds_-11">
          <mxGeometry relative="1" as="geometry" />
        </mxCell>
        <mxCell id="ychN1YBk3QuJB1vX3Ds_-18" style="edgeStyle=orthogonalEdgeStyle;rounded=0;orthogonalLoop=1;jettySize=auto;html=1;entryX=0.5;entryY=0;entryDx=0;entryDy=0;" edge="1" parent="dNxyNK7c78bLwvsdeMH5-11" source="ychN1YBk3QuJB1vX3Ds_-2" target="ychN1YBk3QuJB1vX3Ds_-16">
          <mxGeometry relative="1" as="geometry" />
        </mxCell>
        <UserObject label="%name%&lt;br&gt;&lt;i style=&quot;color: gray&quot;&gt;%position%&lt;/i&gt;" name="Jerry Brooks" position="Accountant" location="Office 3" email="me@example.com" placeholders="1" link="https://www.draw.io" id="ychN1YBk3QuJB1vX3Ds_-26">
          <mxCell style="label;image=https://cdn3.iconfinder.com/data/icons/user-avatars-1/512/users-9-128.png;whiteSpace=wrap;html=1;rounded=0;glass=0;container=1;fillColor=#d5e8d4;strokeColor=#82b366;" vertex="1" parent="dNxyNK7c78bLwvsdeMH5-11">
            <mxGeometry x="605" y="290" width="180" height="70" as="geometry">
              <mxRectangle x="605" y="170" width="220" height="80" as="alternateBounds" />
            </mxGeometry>
          </mxCell>
        </UserObject>
      </root>
    </mxGraphModel>
  </diagram>
</mxfile>
